<svg version="1.1" viewBox="0 0 960 720" fill="none" stroke="none" stroke-linecap="square" stroke-miterlimit="10" xmlns:xlink="http://www.w3.org/1999/xlink" xmlns="http://www.w3.org/2000/svg"><clipPath id="p.0"><path d="M0 0h960v720H0V0z" clip-rule="nonzero"/></clipPath><g clip-path="url(#p.0)"><path fill="#000000" fill-opacity="0" d="M0 0h960v720H0z" fill-rule="evenodd"/><path fill="#6247aa" d="M204.2 492.7c-1.2-62.2 50.2-120.1 135-152a419.2 419.2 0 0 1 275.9-2c86 30.5 139.6 87.6 140.7 149.8l-275.8 2z" fill-rule="evenodd"/><path fill="#6247aa" d="M204.2 344.8c0-62.9 54-113.9 120.6-113.9 32 0 62.7 12 85.3 33.4a110.8 110.8 0 0 1 35.3 80.5c0 62.9-54 113.9-120.6 113.9s-120.6-51-120.6-113.9z" fill-rule="evenodd"/><path fill="#6247aa" d="M514.6 344.8c0-62.9 54-113.9 120.6-113.9 32 0 62.6 12 85.3 33.4a110.8 110.8 0 0 1 35.3 80.5c0 62.9-54 113.9-120.6 113.9s-120.6-51-120.6-113.9z" fill-rule="evenodd"/><path fill="#ffffff" d="M239.8 345.4c0-44.2 38-80 85-80 22.5 0 44 8.4 60 23.4 16 15 24.9 35.4 24.9 56.6 0 44.2-38 80-85 80-46.9 0-84.9-35.8-84.9-80z" fill-rule="evenodd"/><path fill="#ffffff" d="M550.3 344.8c0-44.2 38-80 84.9-80 22.5 0 44.1 8.4 60 23.4 16 15 24.9 35.4 24.9 56.6 0 44.2-38 80-85 80-46.8 0-84.8-35.8-84.8-80z" fill-rule="evenodd"/><path fill="#81c784" d="M289.7 361.1c0-26.9 23-48.7 51.5-48.7 13.7 0 26.8 5.2 36.5 14.3a47.3 47.3 0 0 1 15.1 34.4c0 26.9-23 48.7-51.6 48.7-28.5 0-51.5-21.8-51.5-48.7z" fill-rule="evenodd"/><path fill="#81c784" d="M567.6 361.1c0-26.9 23.1-48.7 51.6-48.7 13.7 0 26.8 5.2 36.5 14.3a47.3 47.3 0 0 1 15 34.4c0 26.9-23 48.7-51.5 48.7S567.6 388 567.6 361z" fill-rule="evenodd"/><path fill="#000000" fill-opacity="0" d="M568.3 449c-56 26-123.7 25.7-182-.8l84.1-161.8z" fill-rule="evenodd"/><path fill="#000000" fill-opacity="0" d="M568.3 449c-56 26-123.7 25.7-182-.8" fill-rule="evenodd"/><path stroke="#81c784" stroke-width="24" stroke-linejoin="round" stroke-linecap="butt" d="M568.3 449c-56 26-123.7 25.7-182-.8" fill-rule="evenodd"/></g></svg>